name Walk3.mot
datacolumns 19
datarows 20
range 3.66600000 3.68500000
endheader

                time	   L_ground_force_vx	   L_ground_force_vy	   L_ground_force_vz	   L_ground_force_px	   L_ground_force_py	   L_ground_force_pz	   R_ground_force_vx	   R_ground_force_vy	   R_ground_force_vz	   R_ground_force_px	   R_ground_force_py	   R_ground_force_pz	   L_ground_torque_x	   L_ground_torque_y	   L_ground_torque_z	   R_ground_torque_x	   R_ground_torque_y	   R_ground_torque_z	
          3.66600000	          0.00000000	          0.00000000	          0.00000000	          0.00000000	          0.00000000	          0.00000000	          0.00000000	          0.00000000	          0.00000000	          0.00000000	          0.00000000	          0.00000000	          0.00000000	          0.00000000	          0.00000000	          0.00000000	          0.00000000	          0.00000000	
          3.66700000	          0.00000000	          0.00000000	          0.00000000	          0.00000000	          0.00000000	          0.00000000	          0.00000000	          0.00000000	          0.00000000	          0.00000000	          0.00000000	          0.00000000	          0.00000000	          0.00000000	          0.00000000	          0.00000000	          0.00000000	          0.00000000	
          3.66800000	          0.00000000	          0.00000000	          0.00000000	          0.00000000	          0.00000000	          0.00000000	          0.00000000	          0.00000000	          0.00000000	          0.00000000	          0.00000000	          0.00000000	          0.00000000	          0.00000000	          0.00000000	          0.00000000	          0.00000000	          0.00000000	
          3.66900000	          0.00000000	          0.00000000	          0.00000000	          0.00000000	          0.00000000	          0.00000000	          0.00000000	          0.00000000	          0.00000000	          0.00000000	          0.00000000	          0.00000000	          0.00000000	          0.00000000	          0.00000000	          0.00000000	          0.00000000	          0.00000000	
          3.67000000	          0.00000000	          0.00000000	          0.00000000	          0.00000000	          0.00000000	          0.00000000	          0.97379785	         14.12039085	         -4.82448682	         -0.37726902	          0.00000000	         -0.07294893	          0.00000000	          0.00000000	          0.00000000	          0.00000000	          0.04596303	          0.00000000	
          3.67100000	          0.00000000	          0.00000000	          0.00000000	          0.00000000	          0.00000000	          0.00000000	          1.72783943	         22.25041148	         -6.73958455	         -0.37636096	          0.00000000	         -0.06936173	          0.00000000	          0.00000000	          0.00000000	          0.00000000	          0.05090058	          0.00000000	
          3.67200000	          0.00000000	          0.00000000	          0.00000000	          0.00000000	          0.00000000	          0.00000000	          2.75146362	         32.29742933	         -8.57475159	         -0.37515166	          0.00000000	         -0.06762196	          0.00000000	          0.00000000	          0.00000000	          0.00000000	          0.05123580	          0.00000000	
          3.67300000	          0.00000000	          0.00000000	          0.00000000	          0.00000000	          0.00000000	          0.00000000	          4.09675938	         44.81035427	        -10.28989280	         -0.37379667	          0.00000000	         -0.06704127	          0.00000000	          0.00000000	          0.00000000	          0.00000000	          0.05113013	          0.00000000	
          3.67400000	          0.00000000	          0.00000000	          0.00000000	          0.00000000	          0.00000000	          0.00000000	          5.81673898	         60.71724555	        -11.91973793	         -0.37246826	          0.00000000	         -0.06671042	          0.00000000	          0.00000000	          0.00000000	          0.00000000	          0.05375304	          0.00000000	
          3.67500000	          0.00000000	          0.00000000	          0.00000000	          0.00000000	          0.00000000	          0.00000000	          7.92559677	         81.04886934	        -13.47415896	         -0.37124480	          0.00000000	         -0.06623107	          0.00000000	          0.00000000	          0.00000000	          0.00000000	          0.06220141	          0.00000000	
          3.67600000	          0.00000000	          0.00000000	          0.00000000	          0.00000000	          0.00000000	          0.00000000	         10.35388598	        106.64112546	        -14.90775079	         -0.37014955	          0.00000000	         -0.06571806	          0.00000000	          0.00000000	          0.00000000	          0.00000000	          0.08434564	          0.00000000	
          3.67700000	          0.00000000	          0.00000000	          0.00000000	          0.00000000	          0.00000000	          0.00000000	         12.91865034	        137.78977168	        -16.12642614	         -0.36920887	          0.00000000	         -0.06537253	          0.00000000	          0.00000000	          0.00000000	          0.00000000	          0.13031019	          0.00000000	
          3.67800000	          0.00000000	          0.00000000	          0.00000000	          0.00000000	          0.00000000	          0.00000000	         15.32973921	        173.93393697	        -17.00974585	         -0.36845103	          0.00000000	         -0.06522467	          0.00000000	          0.00000000	          0.00000000	          0.00000000	          0.20318497	          0.00000000	
          3.67900000	          0.00000000	          0.00000000	          0.00000000	          0.00000000	          0.00000000	          0.00000000	         17.22684135	        213.51672223	        -17.44477150	         -0.36786393	          0.00000000	         -0.06517351	          0.00000000	          0.00000000	          0.00000000	          0.00000000	          0.29651400	          0.00000000	
          3.68000000	          0.00000000	          0.00000000	          0.00000000	          0.00000000	          0.00000000	          0.00000000	         18.23076758	        254.14106984	        -17.36592474	         -0.36738407	          0.00000000	         -0.06512472	          0.00000000	          0.00000000	          0.00000000	          0.00000000	          0.39982461	          0.00000000	
          3.68100000	          0.00000000	          0.00000000	          0.00000000	          0.00000000	          0.00000000	          0.00000000	         18.00362990	        293.04992695	        -16.79707362	         -0.36693304	          0.00000000	         -0.06504842	          0.00000000	          0.00000000	          0.00000000	          0.00000000	          0.50297762	          0.00000000	
          3.68200000	          0.00000000	          0.00000000	          0.00000000	          0.00000000	          0.00000000	          0.00000000	         16.31919006	        327.80914839	        -15.87454645	         -0.36644581	          0.00000000	         -0.06495789	          0.00000000	          0.00000000	          0.00000000	          0.00000000	          0.59552642	          0.00000000	
          3.68300000	          0.00000000	          0.00000000	          0.00000000	          0.00000000	          0.00000000	          0.00000000	         13.11924183	        356.90455793	        -14.82420286	         -0.36587355	          0.00000000	         -0.06487514	          0.00000000	          0.00000000	          0.00000000	          0.00000000	          0.66686179	          0.00000000	
          3.68400000	          0.00000000	          0.00000000	          0.00000000	          0.00000000	          0.00000000	          0.00000000	          8.51705905	        379.97446738	        -13.89924542	         -0.36518583	          0.00000000	         -0.06481832	          0.00000000	          0.00000000	          0.00000000	          0.00000000	          0.71420171	          0.00000000	
          3.68500000	          0.00000000	          0.00000000	          0.00000000	          0.00000000	          0.00000000	          0.00000000	          2.74971015	        397.63486862	        -13.31304527	         -0.36437750	          0.00000000	         -0.06481303	          0.00000000	          0.00000000	          0.00000000	          0.00000000	          0.75070720	          0.00000000	
